<?xml version="1.0" standalone="no"?>
<!DOCTYPE svg PUBLIC "-//W3C//DTD SVG 20010904//EN"
 "http://www.w3.org/TR/2001/REC-SVG-20010904/DTD/svg10.dtd">
<svg version="1.0" xmlns="http://www.w3.org/2000/svg"
 width="480.000000pt" height="480.000000pt" viewBox="0 0 480.000000 480.000000"
 preserveAspectRatio="xMidYMid meet">
<metadata>
Created by potrace 1.14, written by Peter Selinger 2001-2017
</metadata>
<g transform="translate(0.000000,480.000000) scale(0.100000,-0.100000)"
fill="#000000" stroke="none">
<path d="M0 2400 l0 -2400 2400 0 2400 0 0 2400 0 2400 -2400 0 -2400 0 0
-2400z m2453 1586 c56 -24 80 -59 85 -124 4 -52 1 -61 -24 -91 -30 -35 -78
-61 -116 -61 -37 0 -108 40 -123 71 -8 15 -15 50 -15 78 0 39 6 56 27 82 46
55 106 71 166 45z m-236 -106 c66 -61 23 -170 -66 -170 -87 1 -132 100 -72
161 37 36 104 41 138 9z m504 -9 c86 -87 -45 -217 -138 -137 -38 33 -40 102
-4 140 36 38 102 37 142 -3z m-724 -33 c30 -15 56 -73 48 -105 -3 -14 -19 -38
-35 -54 -41 -42 -91 -40 -136 5 -38 38 -43 70 -18 117 26 52 82 66 141 37z
m898 8 c69 -29 84 -109 31 -162 -58 -58 -140 -38 -166 41 -20 61 16 111 98
134 1 1 18 -5 37 -13z m-1088 -106 c23 -14 34 -29 39 -56 9 -49 -10 -83 -59
-107 -36 -18 -38 -18 -74 0 -46 22 -67 62 -59 108 13 68 88 95 153 55z m1306
0 c56 -44 42 -130 -25 -163 -37 -18 -39 -18 -75 0 -49 24 -68 58 -59 107 13
67 104 99 159 56z m-1472 -129 c38 -39 40 -96 4 -135 -34 -36 -105 -37 -140
-1 -58 57 -12 165 70 165 27 0 44 -8 66 -29z m1650 0 c39 -39 41 -100 4 -136
-35 -36 -106 -35 -140 1 -56 61 -12 164 70 164 27 0 44 -8 66 -29z m-1800
-152 c33 -35 37 -74 14 -118 -17 -33 -33 -41 -84 -41 -46 0 -76 21 -91 64 -13
41 -2 75 36 105 40 32 89 28 125 -10z m1951 4 c35 -38 41 -65 24 -106 -17 -41
-42 -57 -90 -57 -48 0 -65 8 -81 41 -23 44 -19 83 14 118 39 42 95 44 133 4z
m-2102 -158 c68 -35 79 -98 26 -151 -40 -40 -75 -44 -123 -14 -60 36 -55 130
8 162 42 22 52 22 89 3z m2226 -10 c48 -31 42 -124 -9 -156 -48 -29 -83 -25
-123 15 -52 52 -44 107 19 147 35 22 74 20 113 -6z m-406 -121 c99 -50 130
-97 130 -201 0 -40 -3 -73 -7 -73 -5 0 -17 19 -28 41 -28 60 -107 126 -172
145 -150 44 -270 -51 -281 -223 l-4 -63 -53 0 -53 0 -11 45 c-32 127 -212 187
-324 109 -53 -38 -84 -94 -93 -167 l-7 -57 268 0 268 0 -6 -56 c-8 -74 -64
-191 -116 -242 l-41 -40 25 -16 c13 -9 36 -37 51 -62 58 -99 23 -229 -75 -281
-35 -18 -60 -23 -120 -23 -134 0 -233 65 -300 198 -48 95 -61 162 -68 342 -9
255 15 361 100 448 115 119 283 134 418 37 l46 -33 16 37 c21 45 57 84 110
118 63 40 105 52 183 53 62 0 80 -5 144 -36z m-1883 -79 c32 -32 35 -39 30
-78 -8 -55 -43 -87 -98 -87 -82 0 -128 87 -83 158 34 53 102 56 151 7z m2357
25 c35 -13 60 -56 59 -98 -1 -49 -48 -92 -99 -92 -46 0 -70 14 -89 50 -24 46
-19 78 19 116 35 35 64 42 110 24z m-2421 -224 c48 -44 48 -108 0 -152 -30
-28 -87 -32 -120 -9 -27 19 -46 77 -38 115 15 67 107 94 158 46z m2500 4 c32
-25 42 -69 27 -115 -39 -119 -216 -61 -186 61 17 67 105 96 159 54z m-1758
-24 c113 -53 140 -120 123 -303 -15 -165 6 -321 56 -420 42 -82 105 -151 166
-184 41 -22 57 -24 172 -24 l127 0 -22 -23 c-45 -49 -96 -67 -187 -67 -76 0
-91 4 -145 32 -172 90 -268 255 -282 485 -6 95 -6 97 -27 86 -41 -22 -128 -14
-186 18 -92 49 -132 141 -110 248 15 74 45 115 109 148 69 36 136 37 206 4z
m-788 -176 c34 -12 63 -56 63 -95 0 -38 -59 -95 -98 -95 -39 0 -88 41 -97 80
-9 39 19 96 53 109 36 13 44 13 79 1z m2547 -4 c38 -16 61 -66 50 -110 -9 -36
-59 -76 -96 -76 -39 0 -98 57 -98 95 0 53 45 101 98 104 7 1 28 -5 46 -13z
m-2504 -225 c38 -38 47 -75 27 -117 -30 -63 -106 -79 -156 -33 -46 43 -40 128
12 159 46 28 83 25 117 -9z m2497 9 c51 -31 58 -116 12 -159 -50 -46 -129 -28
-155 35 -19 45 -12 78 26 115 34 34 71 37 117 9z m-2457 -205 c36 -19 50 -43
50 -87 0 -68 -66 -111 -134 -88 -72 24 -88 100 -32 156 38 38 70 43 116 19z
m2415 -16 c28 -25 35 -38 35 -68 0 -47 -21 -77 -65 -91 -69 -23 -135 20 -135
88 0 43 14 68 48 86 43 24 78 19 117 -15z m-2307 -192 c30 -32 37 -78 18 -115
-19 -37 -44 -52 -86 -52 -42 0 -67 15 -86 52 -19 37 -12 83 18 115 16 18 32
23 68 23 36 0 52 -5 68 -23z m2221 1 c29 -31 36 -79 17 -116 -19 -37 -44 -52
-86 -52 -42 0 -67 15 -86 52 -19 37 -12 83 18 115 30 32 108 33 137 1z m-1964
-279 c101 -11 189 -32 382 -89 72 -22 162 -47 199 -56 82 -19 139 -47 176 -86
l28 -30 28 30 c38 40 93 67 187 90 44 11 151 40 239 65 207 61 274 74 437 86
197 15 269 0 338 -70 65 -64 64 -65 -73 -77 -155 -15 -280 -38 -571 -108 -304
-74 -413 -112 -473 -168 -20 -18 -36 -21 -110 -21 -78 0 -90 3 -122 26 -86 65
-183 99 -500 173 -265 61 -390 84 -536 98 -137 12 -138 13 -73 77 79 79 164
91 444 60z m-273 -234 c357 -47 829 -172 933 -247 81 -58 161 -60 243 -4 88
61 330 136 630 197 324 65 542 87 542 54 0 -8 -13 -30 -30 -48 -33 -38 -128
-76 -680 -273 -69 -25 -156 -56 -194 -71 l-69 -26 103 -43 c57 -24 131 -53
166 -64 76 -26 114 -54 114 -84 0 -45 -40 -124 -70 -136 -25 -10 -44 -5 -171
44 -297 114 -444 168 -459 168 -15 0 -162 -54 -459 -168 -127 -49 -146 -54
-171 -44 -30 12 -70 91 -70 136 0 30 38 58 114 84 35 11 110 40 166 64 l103
43 -59 23 c-32 12 -102 37 -154 55 -52 18 -160 57 -240 88 -80 30 -156 58
-170 62 -14 4 -85 30 -158 57 -104 40 -138 58 -162 85 -46 52 -41 63 29 63 33
0 111 -7 173 -15z"/>
<path d="M2260 2576 c0 -18 3 -54 6 -80 l7 -46 96 0 c131 0 165 11 229 75 85
85 84 85 -143 85 l-195 0 0 -34z"/>
<path d="M2300 2304 c30 -77 91 -146 147 -165 45 -15 118 -7 143 16 30 27 27
89 -5 121 -43 43 -87 55 -195 53 l-99 -1 9 -24z"/>
<path d="M1774 2756 c-28 -28 -34 -41 -34 -77 0 -103 94 -160 178 -109 37 23
52 54 52 112 0 32 -7 47 -34 74 -29 29 -41 34 -81 34 -40 0 -52 -5 -81 -34z"/>
</g>
</svg>
